<svg width="25" height="24" viewBox="0 0 25 24" fill="none" xmlns="http://www.w3.org/2000/svg">
<rect x="0.526367" width="23.8563" height="24" rx="4" fill="#FB1A1A"/>
<path d="M6.86328 6.375L7.63985 18.875C7.67674 19.5973 8.19898 20.125 8.88237 20.125H16.0268C16.7129 20.125 17.2255 19.5973 17.2693 18.875L18.0459 6.375" stroke="white" stroke-linecap="round" stroke-linejoin="round"/>
<path d="M5.62109 6.375H19.2888H5.62109Z" fill="white"/>
<path d="M5.62109 6.375H19.2888" stroke="white" stroke-miterlimit="10" stroke-linecap="round"/>
<path d="M9.96981 6.375V4.8125C9.96945 4.68929 9.99331 4.56722 10.04 4.45331C10.0867 4.33941 10.1553 4.23591 10.242 4.14879C10.3286 4.06166 10.4314 3.99262 10.5447 3.94563C10.6579 3.89865 10.7792 3.87464 10.9017 3.875H14.008C14.1305 3.87464 14.2518 3.89865 14.365 3.94563C14.4782 3.99262 14.5811 4.06166 14.6677 4.14879C14.7543 4.23591 14.823 4.33941 14.8697 4.45331C14.9164 4.56722 14.9402 4.68929 14.9399 4.8125V6.375M12.4548 8.875V17.625M9.65918 8.875L9.96981 17.625M15.2505 8.875L14.9399 17.625" stroke="white" stroke-linecap="round" stroke-linejoin="round"/>
</svg>
