<svg width="25" height="24" viewBox="0 0 25 24" fill="none" xmlns="http://www.w3.org/2000/svg">
<rect x="0.724609" width="23.8563" height="24" rx="4" fill="#219653"/>
<path d="M17.6234 10.75V17.9375C17.6234 18.1427 17.5832 18.3459 17.5052 18.5354C17.4271 18.725 17.3127 18.8973 17.1685 19.0424C17.0243 19.1874 16.853 19.3025 16.6646 19.3811C16.4762 19.4596 16.2742 19.5 16.0702 19.5H6.75139C6.33947 19.5 5.94442 19.3354 5.65315 19.0424C5.36188 18.7493 5.19824 18.3519 5.19824 17.9375V8.5625C5.19824 8.1481 5.36188 7.75067 5.65315 7.45765C5.94442 7.16462 6.33947 7 6.75139 7H13.2544" stroke="white" stroke-linecap="round" stroke-linejoin="round"/>
<path d="M20.5716 4.08009C20.5148 4.01737 20.4461 3.96688 20.3694 3.93166C20.2927 3.89644 20.2097 3.87723 20.1254 3.87518C20.0412 3.87314 19.9574 3.8883 19.8791 3.91976C19.8008 3.95122 19.7297 3.99832 19.67 4.05821L19.1897 4.53907C19.1315 4.59767 19.0988 4.67713 19.0988 4.75997C19.0988 4.84282 19.1315 4.92227 19.1897 4.98087L19.63 5.42306C19.6589 5.45223 19.6932 5.47538 19.7309 5.49118C19.7687 5.50697 19.8092 5.5151 19.8502 5.5151C19.8911 5.5151 19.9316 5.50697 19.9694 5.49118C20.0071 5.47538 20.0414 5.45223 20.0703 5.42306L20.5386 4.95431C20.7754 4.71642 20.7976 4.32892 20.5716 4.08009ZM18.2186 5.51564L11.2092 12.5547C11.1667 12.5973 11.1358 12.6501 11.1195 12.7082L10.7953 13.6797C10.7876 13.7061 10.787 13.734 10.7937 13.7607C10.8005 13.7873 10.8142 13.8117 10.8335 13.8311C10.8529 13.8505 10.877 13.8644 10.9035 13.8711C10.93 13.8779 10.9578 13.8774 10.984 13.8695L11.9489 13.5434C12.0066 13.527 12.0592 13.4959 12.1015 13.4531L19.0984 6.40079C19.1632 6.33497 19.1995 6.24612 19.1995 6.15353C19.1995 6.06094 19.1632 5.97208 19.0984 5.90626L18.7121 5.51564C18.6466 5.44992 18.5578 5.41302 18.4653 5.41302C18.3728 5.41302 18.2841 5.44992 18.2186 5.51564Z" fill="white"/>
</svg>
