<svg width="24" height="24" viewBox="0 0 24 24" fill="none" xmlns="http://www.w3.org/2000/svg">
<rect width="24" height="24" rx="4" fill="#030659"/>
<path d="M17.5 6C18.163 6 18.7989 6.26339 19.2678 6.73223C19.7366 7.20107 20 7.83696 20 8.5V16.5C20 17.163 19.7366 17.7989 19.2678 18.2678C18.7989 18.7366 18.163 19 17.5 19H6.5C5.83696 19 5.20107 18.7366 4.73223 18.2678C4.26339 17.7989 4 17.163 4 16.5V8.5C4 7.83696 4.26339 7.20107 4.73223 6.73223C5.20107 6.26339 5.83696 6 6.5 6H17.5ZM19 9.961L12.254 13.931C12.1902 13.9684 12.1189 13.9913 12.0453 13.9978C11.9716 14.0044 11.8974 13.9946 11.828 13.969L11.746 13.931L5 9.963V16.5C5 16.8978 5.15804 17.2794 5.43934 17.5607C5.72064 17.842 6.10218 18 6.5 18H17.5C17.8978 18 18.2794 17.842 18.5607 17.5607C18.842 17.2794 19 16.8978 19 16.5V9.961ZM17.5 7H6.5C6.10218 7 5.72064 7.15804 5.43934 7.43934C5.15804 7.72064 5 8.10218 5 8.5V8.802L12 12.92L19 8.8V8.5C19 8.10218 18.842 7.72064 18.5607 7.43934C18.2794 7.15804 17.8978 7 17.5 7Z" fill="white"/>
</svg>
