<svg width="60" height="60" viewBox="0 0 60 60" fill="none" xmlns="http://www.w3.org/2000/svg">
<path d="M17.5 42.5C20.9518 42.5 23.75 39.7018 23.75 36.25C23.75 32.7982 20.9518 30 17.5 30C14.0482 30 11.25 32.7982 11.25 36.25C11.25 39.7018 14.0482 42.5 17.5 42.5Z" fill="#96A7E2" stroke="#020202" stroke-width="2" stroke-linecap="round" stroke-linejoin="round"/>
<path d="M42.5 42.5C45.9518 42.5 48.75 39.7018 48.75 36.25C48.75 32.7982 45.9518 30 42.5 30C39.0482 30 36.25 32.7982 36.25 36.25C36.25 39.7018 39.0482 42.5 42.5 42.5Z" fill="#96A7E2" stroke="#020202" stroke-width="2" stroke-linecap="round" stroke-linejoin="round"/>
<path d="M30 17.5C33.4518 17.5 36.25 14.7018 36.25 11.25C36.25 7.79822 33.4518 5 30 5C26.5482 5 23.75 7.79822 23.75 11.25C23.75 14.7018 26.5482 17.5 30 17.5Z" fill="#96A7E2" stroke="#020202" stroke-width="2" stroke-linecap="round" stroke-linejoin="round"/>
<path d="M30 55C30 48.0965 24.4035 42.5 17.5 42.5C10.5964 42.5 5 48.0965 5 55" stroke="#020202" stroke-width="2" stroke-linecap="round" stroke-linejoin="round"/>
<path d="M55 55C55 48.0965 49.4035 42.5 42.5 42.5C35.5965 42.5 30 48.0965 30 55" stroke="#020202" stroke-width="2" stroke-linecap="round" stroke-linejoin="round"/>
<path d="M42.5 30C42.5 23.0965 36.9035 17.5 30 17.5C23.0965 17.5 17.5 23.0965 17.5 30" stroke="#020202" stroke-width="2" stroke-linecap="round" stroke-linejoin="round"/>
</svg>
