<svg width="24" height="24" viewBox="0 0 24 24" fill="none" xmlns="http://www.w3.org/2000/svg">
<path d="M12 0C8.8174 0 5.76516 1.26428 3.51472 3.51472C1.26428 5.76516 0 8.8174 0 12C0 15.1826 1.26428 18.2348 3.51472 20.4853C5.76516 22.7357 8.8174 24 12 24C15.1826 24 18.2348 22.7357 20.4853 20.4853C22.7357 18.2348 24 15.1826 24 12C24 8.8174 22.7357 5.76516 20.4853 3.51472C18.2348 1.26428 15.1826 0 12 0V0ZM22 8.64C21.8194 9.23129 21.519 9.77909 21.1176 10.2493C20.7162 10.7195 20.2223 11.1022 19.6667 11.3733C19.3707 10.262 18.8237 9.23338 18.0678 8.36657C17.312 7.49976 16.3674 6.81786 15.3067 6.37333C15.4793 5.78173 15.8515 5.26818 16.36 4.92C15.7867 4.54667 15.0267 4.36 14.5733 5.01333C13.8667 5.93333 14.5733 7.16 14.8533 7.68V7.86667C14.113 7.41763 13.5342 6.74542 13.2 5.94667C11.9117 5.90529 10.6373 6.22388 9.52 6.86667C9.40402 6.11387 9.47733 5.34404 9.73333 4.62667C10.2148 4.67263 10.7002 4.59936 11.1467 4.41333C11.5931 4.22731 11.9869 3.93424 12.2933 3.56C12.9067 2.86667 12.12 1.98667 11.5067 1.45333H11.9867C13.8019 1.44109 15.5891 1.90053 17.1733 2.78667C18.0688 3.44847 18.8052 4.30183 19.3288 5.28449C19.8524 6.26715 20.1501 7.35432 20.2 8.46667C20.52 8.46667 21.1333 7.73333 21.4133 7.24C21.6427 7.692 21.8387 8.16 22 8.64ZM12 22.4533C9.26667 19.68 12.3333 17.4533 10.6667 15.4667C9.44 14.3333 7.61333 15.12 6.52 13.8267C6.33544 12.8625 6.41522 11.8663 6.7509 10.9438C7.08657 10.0213 7.66563 9.20678 8.42667 8.58667C9.12 8 13.76 7.25333 15.6533 8.88C16.7607 9.83379 17.5398 11.112 17.88 12.5333C18.4919 12.5796 19.1039 12.4451 19.64 12.1467C20.1867 16.12 15.44 21.1333 12 22.4533ZM6.86667 2.78667C7.37624 2.59238 7.93602 2.57343 8.45757 2.73279C8.97912 2.89215 9.43271 3.22075 9.74667 3.66667C9.18667 4.17333 8.49333 4.50667 7.74667 4.62667C7.77424 4.23406 7.8596 3.84768 8 3.48L6.86667 2.78667Z" fill="#030659"/>
</svg>
